<?xml version="1.0" encoding="UTF-8" standalone="no"?>
<!DOCTYPE svg PUBLIC "-//W3C//DTD SVG 1.1//EN" "http://www.w3.org/Graphics/SVG/1.1/DTD/svg11.dtd">
<svg width="100%" height="100%" viewBox="0 0 20 20" version="1.1" xmlns="http://www.w3.org/2000/svg" xmlns:xlink="http://www.w3.org/1999/xlink" xml:space="preserve" xmlns:serif="http://www.serif.com/" style="fill-rule:evenodd;clip-rule:evenodd;stroke-linejoin:round;stroke-miterlimit:1.41421;">
    <path d="M18.125,0L1.875,0C0.847,0.003 0.003,0.847 0,1.875L0,18.125C0.003,19.153 0.847,19.997 1.875,20L10,20L10,11.25L7.5,11.25L7.5,8.75L10,8.75L10,7.5C10.003,5.444 11.694,3.753 13.75,3.75L16.25,3.75L16.25,6.25L13.75,6.25C13.062,6.25 12.5,6.813 12.5,7.5L12.5,8.75L16.25,8.75L15.625,11.25L12.5,11.25L12.5,20L18.125,20C19.153,19.997 19.997,19.153 20,18.125L20,1.875C19.997,0.847 19.153,0.003 18.125,0Z" style="fill:rgb(22,20,20);fill-rule:nonzero;"/>
</svg>
