<?xml version="1.0" encoding="UTF-8" standalone="no"?>
<!DOCTYPE svg PUBLIC "-//W3C//DTD SVG 1.1//EN" "http://www.w3.org/Graphics/SVG/1.1/DTD/svg11.dtd">
<svg width="100%" height="100%" viewBox="0 0 76 61" version="1.1" xmlns="http://www.w3.org/2000/svg" xmlns:xlink="http://www.w3.org/1999/xlink" xml:space="preserve" xmlns:serif="http://www.serif.com/" style="fill-rule:evenodd;clip-rule:evenodd;stroke-linejoin:round;stroke-miterlimit:2;">
    <g transform="matrix(1,0,0,1,-376.301,-1509.57)">
        <g transform="matrix(5.13546e-17,0.838685,-0.838685,5.13546e-17,455.976,1497.86)">
            <path d="M80.5,77.6C87.2,67.7 86.2,52.9 85.5,47.7C85.3,45.9 84.3,44.2 82.7,43.2C74,37 61.3,33.7 55.9,32.4L53.8,12.4L53.7,12C53.1,9.6 50.5,5.1 44.9,5.1C42.5,5.1 40.4,6 38.7,7.6C37,9.3 36.1,11.7 36.1,14.2L36.1,53.2L35.1,52.4L35,52.3C26.1,46.1 19.8,48.2 16.7,50C15.2,50.9 14.2,52.4 14,54.2C13.8,56 14.4,57.7 15.6,58.9L26,69.2C29.4,72.6 33,75.5 36.8,78C34,79.5 32,82.5 32,86C32,91 36,95 41,95L77,95C82,95 86,91 86,86C86,82.2 83.7,79 80.5,77.6ZM30.2,65L20.2,55C23.2,53.4 27.1,54.2 31.5,57.2L35.8,60.6C37,61.6 38.6,61.7 39.9,61.1C41.3,60.5 42.1,59.1 42.1,57.6L42.1,14.2C42.1,13.3 42.4,12.4 43,11.8C43.5,11.3 44.1,11 45,11C46.9,11 47.7,12.7 47.9,13.2L50.1,34.5C50.3,36.2 51.5,37.6 53.2,37.9C56,38.5 70.3,41.7 79.4,48C79.5,48.1 79.6,48.2 79.6,48.4C80.1,52 81.6,69.1 73.3,76.9L47.3,76.9C41.1,74.1 35.3,70.1 30.2,65ZM77,88.9L41,88.9C39.3,88.9 38,87.6 38,85.9C38,84.2 39.3,82.9 41,82.9L77,82.9C78.7,82.9 80,84.2 80,85.9C80,87.6 78.7,88.9 77,88.9Z" style="fill:white;fill-rule:nonzero;"/>
        </g>
    </g>
</svg>
