<?xml version="1.0" encoding="UTF-8" standalone="no"?>
<!DOCTYPE svg PUBLIC "-//W3C//DTD SVG 1.1//EN" "http://www.w3.org/Graphics/SVG/1.1/DTD/svg11.dtd">
<svg width="100%" height="100%" viewBox="0 0 100 79" version="1.1" xmlns="http://www.w3.org/2000/svg" xmlns:xlink="http://www.w3.org/1999/xlink" xml:space="preserve" xmlns:serif="http://www.serif.com/" style="fill-rule:evenodd;clip-rule:evenodd;stroke-linejoin:round;stroke-miterlimit:1.41421;">
    <g transform="matrix(2.04448,0,0,2.04448,-51.4787,-63.003)">
        <path d="M67.776,34.535L32.25,34.535C30.745,34.535 29.525,35.755 29.525,37.26C29.525,38.766 30.745,39.985 32.25,39.985L67.776,39.985C69.281,39.985 70.501,38.766 70.501,37.26C70.501,35.754 69.281,34.535 67.776,34.535Z" style="fill:white;fill-rule:nonzero;"/>
    </g>
    <g transform="matrix(2.04448,0,0,2.04448,-51.4787,-63.003)">
        <path d="M32.156,52.767L67.681,52.767C69.186,52.767 70.406,51.547 70.406,50.042C70.406,48.537 69.186,47.317 67.681,47.317L32.156,47.317C30.651,47.317 29.43,48.536 29.43,50.042C29.431,51.547 30.651,52.767 32.156,52.767Z" style="fill:white;fill-rule:nonzero;"/>
    </g>
    <g transform="matrix(2.04448,0,0,2.04448,-51.4787,-63.003)">
        <path d="M67.776,60.102L32.25,60.102C30.745,60.102 29.525,61.322 29.525,62.826C29.525,64.331 30.745,65.552 32.25,65.552L67.776,65.552C69.281,65.552 70.501,64.331 70.501,62.826C70.501,61.321 69.281,60.102 67.776,60.102Z" style="fill:white;fill-rule:nonzero;"/>
    </g>
</svg>
