<svg xmlns="http://www.w3.org/2000/svg" width="60" height="60" viewBox="0 0 60 60">
    <g fill="none" fill-rule="evenodd">
        <circle cx="30" cy="30" r="30" fill="#161414"/>
        <path fill="#FFF" fill-rule="nonzero" d="M39.23 45h-.378c-2.052 0-5.138-.96-8.468-2.632-3.254-1.634-6.224-3.676-8.15-5.602-1.926-1.926-3.968-4.896-5.602-8.15C14.96 25.286 14 22.2 14 20.148v-.378l.21-.314c.042-.062 1.034-1.548 2.292-3.056 1.32-1.582 3.04-3.4 4.648-3.4 1.388 0 3.11 1.392 4.012 2.222.692.638 2.388 2.322 3.16 4.184.816 1.972.108 3.098-.388 3.594-.854.854-1.696 1.374-2.37 1.792-1.062.656-1.196.798-1.196 1.258 0 1.448 1.814 3.262 3.566 5.016 1.752 1.754 3.568 3.568 5.016 3.568.46 0 .602-.134 1.258-1.196.418-.676.938-1.516 1.792-2.37.498-.498 1.16-.762 1.91-.762.814 0 1.742.312 2.758.926.804.486 1.654 1.158 2.46 1.94C43.802 33.828 46 36.1 46 37.85c0 1.608-1.816 3.328-3.4 4.648-1.51 1.258-2.994 2.25-3.056 2.292l-.314.21zM16.516 20.518c.116 1.674.976 4.238 2.352 6.978 1.496 2.98 3.416 5.784 5.134 7.504 1.718 1.72 4.524 3.638 7.504 5.134 2.74 1.376 5.304 2.238 6.978 2.352a38.887 38.887 0 0 0 2.418-1.826c2.278-1.88 2.568-2.702 2.598-2.818-.056-.364-.736-1.562-2.19-2.954-1.494-1.432-2.808-2.084-3.396-2.084-.076 0-.124.01-.144.03-.648.648-1.048 1.294-1.432 1.918-.69 1.116-1.472 2.382-3.384 2.382-2.484 0-4.67-2.186-6.784-4.3s-4.3-4.3-4.3-6.784c0-1.912 1.266-2.694 2.382-3.384.624-.386 1.27-.784 1.918-1.432.038-.038.066-.268-.092-.71-.33-.922-1.262-2.186-2.43-3.296-1.264-1.204-2.214-1.678-2.488-1.724-.118.032-.942.324-2.83 2.612a38.976 38.976 0 0 0-1.814 2.402z"/>
    </g>
</svg>
