<svg xmlns="http://www.w3.org/2000/svg" width="22" height="22" viewBox="0 0 22 22">
    <g fill="#FFF" fill-rule="nonzero">
        <path d="M6.667 21.492c-1.381 0-2.5-1.101-2.5-2.46 0-1.357 1.119-2.458 2.5-2.458 1.38 0 2.5 1.1 2.5 2.459 0 1.358-1.12 2.459-2.5 2.459zm0-.984c.828 0 1.5-.66 1.5-1.475 0-.815-.672-1.476-1.5-1.476-.829 0-1.5.66-1.5 1.476 0 .815.671 1.475 1.5 1.475zM14.667 21.492c-1.381 0-2.5-1.101-2.5-2.46 0-1.357 1.119-2.458 2.5-2.458 1.38 0 2.5 1.1 2.5 2.459 0 1.358-1.12 2.459-2.5 2.459zm0-.984c.828 0 1.5-.66 1.5-1.475 0-.815-.672-1.476-1.5-1.476-.829 0-1.5.66-1.5 1.476 0 .815.671 1.475 1.5 1.475z"/>
        <path d="M8.667 19.525v-.984h4v.984zM2.868 1.492H0V.508h3.798l1.367 18.49-.997.07z"/>
        <path d="M20.37 4.115H3.667V3.13H21.63l-2.56 10.793-14.702 1.01-.07-.982 13.966-.958z"/>
    </g>
</svg>
