<svg xmlns="http://www.w3.org/2000/svg" width="24" height="19" viewBox="0 0 24 19">
    <path fill="#FFF" fill-rule="nonzero" d="M23.286 2.197a9.23 9.23 0 0 1-2.692.737c.969-.58 1.71-1.5 2.063-2.594a9.438 9.438 0 0 1-2.977 1.139A4.686 4.686 0 0 0 16.256 0a4.686 4.686 0 0 0-4.687 4.688c0 .365.04.722.12 1.067A13.316 13.316 0 0 1 2.023.854a4.69 4.69 0 0 0-.634 2.357 4.68 4.68 0 0 0 2.084 3.902 4.716 4.716 0 0 1-2.126-.584v.058a4.69 4.69 0 0 0 3.763 4.599 4.701 4.701 0 0 1-2.121.081 4.704 4.704 0 0 0 4.38 3.259 9.408 9.408 0 0 1-6.946 1.941 13.266 13.266 0 0 0 7.191 2.107c8.625 0 13.345-7.147 13.345-13.344 0-.206-.005-.406-.013-.607a9.414 9.414 0 0 0 2.338-2.424l.002-.002z"/>
</svg>
